<svg width="40" height="40" viewBox="0 0 40 40" fill="none" xmlns="http://www.w3.org/2000/svg">
<path d="M34.5494 22.3211L31.8983 23.3758C31.1057 23.6905 30.2212 23.6905 29.4287 23.3758L26.5639 22.236C25.7713 21.9213 24.8868 21.9213 24.0943 22.236L21.2295 23.3758C20.4369 23.6905 19.5524 23.6905 18.7599 23.3758L15.8972 22.236C15.1046 21.9213 14.2202 21.9213 13.4276 22.236L10.5649 23.3758C9.77235 23.6905 8.88791 23.6905 8.09533 23.3758L5.44843 22.3211C4.75412 22.0447 4 22.5529 4 23.2971V26.4207C4 26.8502 4.26277 27.2372 4.6644 27.3967L8.09747 28.764C8.89005 29.0787 9.77448 29.0787 10.5671 28.764L13.4297 27.6242C14.2223 27.3095 15.1068 27.3095 15.8993 27.6242L18.762 28.764C19.5546 29.0787 20.439 29.0787 21.2316 28.764L24.0964 27.6242C24.889 27.3095 25.7734 27.3095 26.566 27.6242L29.4308 28.764C30.2234 29.0787 31.1078 29.0787 31.9004 28.764L35.3356 27.3967C35.7372 27.2372 36 26.8502 36 26.4207V23.2971C36 22.5529 35.2459 22.0447 34.5516 22.3211H34.5494Z" fill="#DEEAFF"/>
<path d="M34.5494 29.3211L31.8983 30.3758C31.1057 30.6905 30.2212 30.6905 29.4287 30.3758L26.5639 29.236C25.7713 28.9213 24.8868 28.9213 24.0943 29.236L21.2295 30.3758C20.4369 30.6905 19.5524 30.6905 18.7599 30.3758L15.8972 29.236C15.1046 28.9213 14.2202 28.9213 13.4276 29.236L10.5649 30.3758C9.77235 30.6905 8.88791 30.6905 8.09533 30.3758L5.44843 29.3211C4.75412 29.0447 4 29.5529 4 30.2971V33.4207C4 33.8502 4.26277 34.2372 4.6644 34.3967L8.09747 35.764C8.89005 36.0787 9.77448 36.0787 10.5671 35.764L13.4297 34.6242C14.2223 34.3095 15.1068 34.3095 15.8993 34.6242L18.762 35.764C19.5546 36.0787 20.439 36.0787 21.2316 35.764L24.0964 34.6242C24.889 34.3095 25.7734 34.3095 26.566 34.6242L29.4308 35.764C30.2234 36.0787 31.1078 36.0787 31.9004 35.764L35.3356 34.3967C35.7372 34.2372 36 33.8502 36 33.4207V30.2971C36 29.5529 35.2459 29.0447 34.5516 29.3211H34.5494Z" fill="#DEEAFF"/>
<path d="M25.4988 20C28.5373 20 31 17.2967 31 13.9613C31 12.898 30.7639 11.8162 30.3108 10.8772C29.6024 9.40651 28.4723 8.1554 27.5398 6.85138C26.8771 5.92296 26.212 4.99718 25.5494 4.06877C25.547 4.06612 25.4988 4.00265 25.5012 4C24.7928 5.01571 24.0386 5.99702 23.3446 7.02066C22.4289 8.36964 21.3422 9.59167 20.6145 11.0835C20.1928 11.9511 20 12.9774 20 13.9587C20 17.2941 22.4626 19.9974 25.5012 19.9974L25.4988 20Z" fill="#2A67DD"/>
</svg>
