<svg xmlns="http://www.w3.org/2000/svg" width="438.767" height="261.526" viewBox="0 0 438.767 261.526">
  <g id="그룹_1" data-name="그룹 1" transform="translate(-568.577 -258.474)">
    <path id="패스_1" data-name="패스 1" d="M680.577,339.678s27.725-81.2,100.581-81.2c103.875-.287,108.148,81.2,166.875,81.2,39.065-1.083,59.311-39.685,59.311-39.685S988.153,391.307,906.659,389.2c-94.464-2.421-107.4-79.073-162.374-79.839C707.5,309.214,680.577,339.678,680.577,339.678Z" fill="#2a59d5"/>
    <path id="패스_2" data-name="패스 2" d="M680.577,339.678s27.725-81.2,100.581-81.2c103.875-.287,108.148,81.2,166.875,81.2,39.065-1.083,59.311-39.685,59.311-39.685S988.153,391.307,906.659,389.2c-94.464-2.421-107.4-79.073-162.374-79.839C707.5,309.214,680.577,339.678,680.577,339.678Z" transform="translate(-112 130.763)" fill="#2a59d5"/>
  </g>
</svg>
